<?xml version="1.0" encoding="utf-8"?>
<!-- Generator: Adobe Illustrator 27.3.1, SVG Export Plug-In . SVG Version: 6.00 Build 0)  -->
<svg version="1.1" id="Layer_1" xmlns="http://www.w3.org/2000/svg" xmlns:xlink="http://www.w3.org/1999/xlink" x="0px" y="0px"
	 viewBox="0 0 118 30" style="enable-background:new 0 0 118 30;" xml:space="preserve">
<style type="text/css">
	.st0{display:none;}
	.st1{display:inline;fill:#FFFFFF;}
	.st2{fill:url(#SVGID_1_);}
</style>
<g class="st0">
	<path class="st1" d="M30-36.6v2.5c0,4.3-1.4,7.8-4.1,10.3c-2.7,2.6-6.1,3.8-10.2,3.8c-4.5,0-8.3-1.4-11.2-4.3C1.5-27.2,0-30.8,0-35
		s1.5-7.8,4.4-10.7c3-2.9,6.6-4.4,10.8-4.4c2.7,0,5.2,0.6,7.4,1.8c2.3,1.2,4,2.8,5.3,4.8l-5.6,3.2c-0.6-1-1.6-1.8-2.9-2.4
		c-1.2-0.6-2.7-0.9-4.2-0.9c-2.5,0-4.5,0.8-6.1,2.4c-1.6,1.6-2.4,3.7-2.4,6.2s0.8,4.5,2.5,6.1s3.9,2.3,6.6,2.3
		c3.8,0,6.3-1.5,7.4-4.5h-7.8v-5.8H30V-36.6z"/>
	<path class="st1" d="M44.7-49.4c2.8,0,5.3,1,7.2,2.9c2,1.9,2.9,4.3,2.9,7s-1,5.1-2.9,7c-2,1.9-4.4,2.9-7.2,2.9h-4.4v9.1h-6.6v-28.8
		h11V-49.4z M44.7-35.8c1,0,1.9-0.4,2.5-1.1c0.7-0.7,1-1.6,1-2.6s-0.3-1.9-1-2.6c-0.7-0.7-1.5-1.1-2.5-1.1h-4.4v7.4
		C40.3-35.8,44.7-35.8,44.7-35.8z"/>
	<path class="st1" d="M77.3-49.4v6.3h-7.5v22.5h-6.6v-22.5h-7.5v-6.3H77.3z"/>
	<path class="st1" d="M78.2-29.9v-5.9H94v5.9H78.2z"/>
	<path class="st1" d="M111.8-37.7c1.9,0.6,3.3,1.7,4.5,3.1c1.1,1.4,1.7,3.1,1.7,5c0,3-1,5.4-3.1,7.1c-2,1.7-4.6,2.6-7.5,2.6
		c-2.3,0-4.4-0.5-6.2-1.6c-1.8-1-3.1-2.6-4-4.6l5.7-3.3c0.7,2,2.2,3,4.4,3c1.3,0,2.3-0.3,2.9-0.9c0.7-0.6,1-1.4,1-2.3
		s-0.3-1.7-1-2.3c-0.7-0.6-1.6-0.9-2.9-0.9H106l-2.5-3.8l5.3-6.6H98.2v-6.2h18.7v5.4L111.8-37.7z"/>
</g>
<linearGradient id="SVGID_1_" gradientUnits="userSpaceOnUse" x1="0" y1="17" x2="102.4" y2="17" gradientTransform="matrix(1 0 0 -1 0 32)">
	<stop  offset="0" style="stop-color:#AE67FA"/>
	<stop  offset="1" style="stop-color:#F49867"/>
</linearGradient>
<path class="st2" d="M15.1,29.9h-3.9L4,11.1c0.2,0.9,0.3,1.6,0.3,2.2v16.6H0V0h3.9l7.2,18.4c-0.2-0.9-0.3-1.6-0.3-2.2V0h4.3
	C15.1,0,15.1,29.9,15.1,29.9z M30.9,27.5c0,1.6-0.8,2.4-2.5,2.4h-7.5c-1.6,0-2.5-0.8-2.5-2.4V13c0-1.6,0.8-2.4,2.5-2.4h7.5
	c1.6,0,2.5,0.8,2.5,2.4v7.1l-1.2,1.2h-7.1v5.4h4.1v-3.2h4.2V27.5z M26.7,18.4v-4.6h-4.1v4.6H26.7z M47,29.9h-4.8l-2.3-6l-2.4,6h-4.7
	v-0.1l4.7-9.8l-4.2-9.3h4.5l2.1,5.6l2.2-5.6h4.4v0.1L42.3,20L47,29.9z M61.7,29.9h-4.3v-0.7c-1,0.2-2,0.3-3,0.5
	c-1.2,0.2-2.3,0.3-3.1,0.3c-1.6,0-2.4-0.8-2.4-2.4v-17h4.3v15.6l4.1-0.1V10.6h4.3L61.7,29.9L61.7,29.9z M77,27.5
	c0,1.6-0.8,2.4-2.4,2.4h-7.4c-1.6,0-2.4-0.8-2.4-2.4v-4.1H69v3.2h3.8v-3.1l-6.7-3.9c-0.9-0.5-1.3-1.2-1.3-2.1V13
	c0-1.6,0.8-2.4,2.5-2.4h7.3c1.6,0,2.4,0.8,2.4,2.4v3.9h-4.1v-3h-3.8v2.8l6.7,3.9c0.9,0.5,1.3,1.2,1.3,2.1L77,27.5L77,27.5z
	 M95.4,29.9H91l-0.9-5.7h-5.6l-0.9,5.7h-4.4v-0.1L85,0h4.7L95.4,29.9z M89.4,20.4L87.3,6.9l-2.2,13.5H89.4z M102.4,29.9h-4.5V0h4.5
	V29.9z"/>
</svg>
